<?xml version="1.0" encoding="utf-8"?>
<!-- Generator: Adobe Illustrator 24.1.3, SVG Export Plug-In . SVG Version: 6.00 Build 0)  -->
<svg version="1.1" id="Capa_1" xmlns="http://www.w3.org/2000/svg" xmlns:xlink="http://www.w3.org/1999/xlink" x="0px" y="0px"
	 viewBox="0 0 24 24" style="enable-background:new 0 0 24 24;" xml:space="preserve">
<style type="text/css">
	.st0{fill:none;}
	.st1{fill:#2E4ECC;}
	.st2{fill:#FFFFFF;}
</style>
<g id="bounding_area">
	<rect class="st0" width="24" height="24"/>
</g>
<rect x="4.5" y="9.5" class="st1" width="15" height="10"/>
<g id="design">
	<g>
		<path class="st1" d="M19.3,4h-2.5V2.8C16.8,2.3,16.4,2,16,2s-0.8,0.3-0.8,0.8V4H8.8V2.8C8.8,2.3,8.4,2,8,2S7.3,2.3,7.3,2.8V4H4.8
			C3.8,4,3,4.8,3,5.8v13.5c0,1,0.8,1.8,1.8,1.8h14.5c1,0,1.8-0.8,1.8-1.8V5.8C21,4.8,20.2,4,19.3,4z M4.5,5.8c0-0.1,0.1-0.3,0.3-0.3
			h14.5c0.1,0,0.3,0.1,0.3,0.3V8h-15V5.8z M19.5,19.3c0,0.1-0.1,0.3-0.3,0.3H4.8c-0.1,0-0.3-0.1-0.3-0.3V9.5h15V19.3z"/>
		<g>
			<path class="st2" d="M8,14L8,14c-0.6,0-1-0.4-1-1s0.4-1,1-1s1,0.4,1,1S8.6,14,8,14z"/>
			<path class="st2" d="M12,14c-0.6,0-1-0.4-1-1s0.4-1,1-1l0,0c0.6,0,1,0.4,1,1S12.6,14,12,14z"/>
			<path class="st2" d="M16,14c-0.6,0-1-0.4-1-1s0.4-1,1-1l0,0c0.5,0,1,0.4,1,1S16.5,14,16,14z"/>
		</g>
		<path class="st2" d="M8,17.5L8,17.5c-0.6,0-1-0.5-1-1s0.4-1,1-1s1,0.4,1,1C9,17,8.6,17.5,8,17.5z"/>
		<path class="st2" d="M12,17.5c-0.6,0-1-0.5-1-1s0.4-1,1-1l0,0c0.6,0,1,0.4,1,1C13,17,12.6,17.5,12,17.5z"/>
	</g>
</g>
</svg>
