<?xml version="1.0" encoding="utf-8"?>
<!-- Generator: Adobe Illustrator 24.1.3, SVG Export Plug-In . SVG Version: 6.00 Build 0)  -->
<svg version="1.1" id="Capa_1" xmlns="http://www.w3.org/2000/svg" xmlns:xlink="http://www.w3.org/1999/xlink" x="0px" y="0px"
	 viewBox="0 0 24 24" style="enable-background:new 0 0 24 24;" xml:space="preserve">
<style type="text/css">
	.st0{fill:none;}
	.st1{fill:#3151CF;}
</style>
<g id="bounding_box">
	<rect class="st0" width="24" height="24"/>
</g>
<g id="design">
	<path class="st1" d="M12,20c-0.2,0-0.4-0.1-0.5-0.2l-7.1-7.2c-1.9-1.9-1.9-5.2,0-7.1c1.9-1.9,5-1.9,6.9,0C11.6,5.7,11.8,6,12,6.3
		c0.2-0.3,0.4-0.6,0.7-0.8C13.6,4.5,14.8,4,16.1,4c1.3,0,2.5,0.5,3.5,1.4c1.9,1.9,1.9,5.3,0,7.2l-7,7.2C12.4,19.9,12.2,20,12,20z"/>
</g>
</svg>
