<?xml version="1.0" encoding="utf-8"?>
<!-- Generator: Adobe Illustrator 24.1.3, SVG Export Plug-In . SVG Version: 6.00 Build 0)  -->
<svg version="1.1" id="Capa_1" xmlns="http://www.w3.org/2000/svg" xmlns:xlink="http://www.w3.org/1999/xlink" x="0px" y="0px"
	 viewBox="0 0 297 290" style="enable-background:new 0 0 297 290;" xml:space="preserve">
<style type="text/css">
	.st0{fill:#2F4FCD;}
	.st1{fill:#FFFFFF;}
	.st2{fill:#2F4FCD;stroke:#FFFFFF;stroke-width:15;stroke-miterlimit:10;}
</style>
<path class="st0" d="M219.4,256.7H70.4c-23.9,0-43.3-19.4-43.3-43.2V75.8c0-23.9,19.4-43.2,43.3-43.2h148.9
	c23.9,0,43.2,19.4,43.2,43.2v137.6C262.6,237.3,243.2,256.7,219.4,256.7z"/>
<path class="st1" d="M128.1,139.9L128.1,139.9c-4.2-2.3-9.5-0.9-11.9,3l-28.7,47.3c-2.4,4-1,9.1,3.2,11.4h0c4.2,2.3,9.5,0.9,11.9-3
	l28.7-47.3C133.7,147.2,132.3,142.2,128.1,139.9z"/>
<path class="st1" d="M164.1,148.6v-3.1c0-3.7-3-6.8-6.8-6.8h-33.6c-3.7,0-6.8,3-6.8,6.8v3.1c0,3.7,3,6.8,6.8,6.8h33.6
	C161.1,155.4,164.1,152.4,164.1,148.6z"/>
<path class="st1" d="M189.3,92.6L189.3,92.6c-4.2-2.3-9.5-0.9-11.9,3l-28.7,47.3c-2.4,4-1,9.1,3.2,11.4h0c4.2,2.3,9.5,0.9,11.9-3
	l28.7-47.3C195,100,193.5,94.9,189.3,92.6z"/>
<circle class="st2" cx="242.5" cy="55.3" r="40.7"/>
</svg>
