<?xml version="1.0" encoding="utf-8"?>
<!-- Generator: Adobe Illustrator 24.1.3, SVG Export Plug-In . SVG Version: 6.00 Build 0)  -->
<svg version="1.1" id="Capa_1" xmlns="http://www.w3.org/2000/svg" xmlns:xlink="http://www.w3.org/1999/xlink" x="0px" y="0px"
	 viewBox="0 0 297 290" style="enable-background:new 0 0 297 290;" xml:space="preserve">
<style type="text/css">
	.st0{fill:#3151CF;}
	.st1{fill:#FFFFFF;}
</style>
<path class="st0" d="M230.8,246.5H66.2c-19.1,0-34.6-15.5-34.6-34.6V78.2c0-19.1,15.5-34.6,34.6-34.6h164.5
	c19.1,0,34.6,15.5,34.6,34.6v133.7C265.4,231,249.9,246.5,230.8,246.5z"/>
<path class="st1" d="M212.5,200.6L212.5,200.6c-6.6,5.7-17.2,5.7-23.8,0L84.5,110.1c-6.6-5.7-6.6-14.9,0-20.6l0,0
	c6.6-5.7,17.2-5.7,23.8,0l104.3,90.5C219.1,185.6,219.1,194.9,212.5,200.6z"/>
<path class="st1" d="M84.5,200.6L84.5,200.6c6.6,5.7,17.2,5.7,23.8,0l104.3-90.5c6.6-5.7,6.6-14.9,0-20.6l0,0
	c-6.6-5.7-17.2-5.7-23.8,0L84.5,179.9C77.9,185.6,77.9,194.9,84.5,200.6z"/>
</svg>
