<?xml version="1.0" encoding="utf-8"?>
<!-- Generator: Adobe Illustrator 24.1.3, SVG Export Plug-In . SVG Version: 6.00 Build 0)  -->
<svg version="1.1" id="Capa_1" xmlns="http://www.w3.org/2000/svg" xmlns:xlink="http://www.w3.org/1999/xlink" x="0px" y="0px"
	 viewBox="0 0 297 290" style="enable-background:new 0 0 297 290;" xml:space="preserve">
<style type="text/css">
	.st0{fill:#3151CF;}
	.st1{fill:#FFFFFF;}
</style>
<path class="st0" d="M230.8,246.4H66.2c-19.1,0-34.6-15.5-34.6-34.6V78.1c0-19.1,15.5-34.6,34.6-34.6h164.5
	c19.1,0,34.6,15.5,34.6,34.6v133.7C265.4,230.9,249.9,246.4,230.8,246.4z"/>
<path class="st1" d="M136.6,174.3L136.6,174.3c-4.8-4.8-4.8-12.5,0-17.3l41.3-41.3c4.8-4.8,12.5-4.8,17.3,0l0,0
	c4.8,4.8,4.8,12.5,0,17.3l-41.3,41.3C149,179,141.3,179,136.6,174.3z"/>
<path class="st1" d="M153.2,170.6L153.2,170.6c-2.7,6.2-9.9,8.9-16.1,6.2l-32.5-14.4c-6.2-2.7-8.9-9.9-6.2-16.1l0,0
	c2.7-6.2,9.9-8.9,16.1-6.2l32.5,14.4C153.2,157.2,156,164.4,153.2,170.6z"/>
</svg>
