<?xml version="1.0" encoding="utf-8"?>
<!-- Generator: Adobe Illustrator 24.1.3, SVG Export Plug-In . SVG Version: 6.00 Build 0)  -->
<svg version="1.1" id="Capa_1" xmlns="http://www.w3.org/2000/svg" xmlns:xlink="http://www.w3.org/1999/xlink" x="0px" y="0px"
	 viewBox="0 0 297 290" style="enable-background:new 0 0 297 290;" xml:space="preserve">
<style type="text/css">
	.st0{fill:#3151CF;}
	.st1{fill:#FFFFFF;}
</style>
<path class="st0" d="M230.8,246.4H66.2c-19.1,0-34.6-15.5-34.6-34.6V78.1c0-19.1,15.5-34.6,34.6-34.6h164.5
	c19.1,0,34.6,15.5,34.6,34.6v133.7C265.4,230.9,249.9,246.4,230.8,246.4z"/>
<path class="st1" d="M110.4,221.6L110.4,221.6c-6.6,0-11.9-5.3-11.9-11.9V106.3c0-6.6,5.3-11.9,11.9-11.9h0
	c6.6,0,11.9,5.3,11.9,11.9v103.4C122.4,216.3,117,221.6,110.4,221.6z"/>
<path class="st1" d="M153.6,221.6L153.6,221.6c-6.6,0-11.9-5.3-11.9-11.9V71.3c0-6.6,5.3-11.9,11.9-11.9h0c6.6,0,11.9,5.3,11.9,11.9
	v138.4C165.5,216.3,160.2,221.6,153.6,221.6z"/>
<path class="st1" d="M197.1,221.6L197.1,221.6c-6.6,0-11.9-5.3-11.9-11.9V137c0-6.6,5.3-11.9,11.9-11.9h0c6.6,0,11.9,5.3,11.9,11.9
	v72.7C209.1,216.3,203.7,221.6,197.1,221.6z"/>
</svg>
