<?xml version="1.0" encoding="utf-8"?>
<!-- Generator: Adobe Illustrator 24.1.3, SVG Export Plug-In . SVG Version: 6.00 Build 0)  -->
<svg version="1.1" id="Capa_1" xmlns="http://www.w3.org/2000/svg" xmlns:xlink="http://www.w3.org/1999/xlink" x="0px" y="0px"
	 viewBox="0 0 24 24" style="enable-background:new 0 0 24 24;" xml:space="preserve">
<style type="text/css">
	.st0{fill:none;}
	.st1{fill:#2E4ECC;}
	.st2{fill:#FFFFFF;}
</style>
<g id="bounding_box">
	<rect class="st0" width="24" height="24"/>
</g>
<g id="design">
	<g>
		<path class="st1" d="M21.3,18.5h-13l6.8-6.9l2.4-2.4C17.8,8.9,18,8.4,18,7.9s-0.2-1-0.6-1.3l-2-2c-0.7-0.7-2-0.7-2.7,0L2.2,15.1
			C2.1,15.3,2,15.4,2,15.7v3.6C2,19.7,2.3,20,2.8,20h18.5c0.4,0,0.8-0.4,0.8-0.8S21.7,18.5,21.3,18.5z M13.9,5.6
			c0.2-0.2,0.3-0.2,0.5,0l2,2c0.1,0.1,0.1,0.2,0.1,0.3c0,0.1,0,0.2-0.1,0.3L14.5,10L12,7.5L13.9,5.6z M3.5,18.5V16l7.4-7.4l2.5,2.5
			L6,18.5H3.5z"/>
	</g>
</g>
<polygon class="st1" points="3.5,18.5 3.5,16 10.9,8.6 13.4,11.1 6,18.5 "/>
<polygon class="st1" points="12.1,7.4 14.5,10 17.4,7.4 14.6,4.5 "/>
<polygon class="st2" points="11.8,7.1 14.5,9.9 13.3,11.1 10.7,8.3 9.5,7.1 10.7,5.9 "/>
</svg>
