<?xml version="1.0" encoding="utf-8"?>
<!-- Generator: Adobe Illustrator 24.1.3, SVG Export Plug-In . SVG Version: 6.00 Build 0)  -->
<svg version="1.1" id="Capa_1" xmlns="http://www.w3.org/2000/svg" xmlns:xlink="http://www.w3.org/1999/xlink" x="0px" y="0px"
	 viewBox="0 0 297 290" style="enable-background:new 0 0 297 290;" xml:space="preserve">
<style type="text/css">
	.st0{fill:#2F4FCD;}
	.st1{fill:#FFFFFF;}
</style>
<path class="st0" d="M285,41.7V169c-5,24.1-15.4,39.5-22.3,48c-10.8,13.2-35,24.8-83.5,48c-10.6,5.1-19.6,9.2-31.8,8.9
	c-11.4-0.2-18.5-4.8-38.8-13.4c-21.8-9.2-32.7-13.9-40-17.9c-12.9-7.1-37.2-23.8-57.6-62.5V41.7L148.6,16L285,41.7z"/>
<path class="st1" d="M109.1,183.9L109.1,183.9c-3.5-3.5-3.5-9.2,0-12.7l65.1-65.1c3.5-3.5,9.2-3.5,12.7,0l0,0
	c3.5,3.5,3.5,9.2,0,12.7l-65.1,65.1C118.3,187.4,112.6,187.4,109.1,183.9z"/>
<path class="st1" d="M187.4,183.8L187.4,183.8c3.5-3.5,3.5-9.2,0-12.7l-65.1-65.1c-3.5-3.5-9.2-3.5-12.7,0l0,0
	c-3.5,3.5-3.5,9.2,0,12.7l65.1,65.1C178.2,187.4,183.9,187.4,187.4,183.8z"/>
</svg>
