<?xml version="1.0" encoding="utf-8"?>
<!-- Generator: Adobe Illustrator 24.1.3, SVG Export Plug-In . SVG Version: 6.00 Build 0)  -->
<svg version="1.1" baseProfile="tiny" id="Capa_1" xmlns="http://www.w3.org/2000/svg" xmlns:xlink="http://www.w3.org/1999/xlink"
	 x="0px" y="0px" viewBox="0 0 274 258" overflow="visible" xml:space="preserve">
<path fill="#FFD012" d="M274,25.69v127.32c-4.96,24.05-15.36,39.5-22.34,48.02c-10.81,13.19-35.04,24.8-83.49,48.02
	c-10.62,5.09-19.59,9.19-31.75,8.93c-11.42-0.24-18.54-4.83-38.81-13.4c-21.82-9.23-32.73-13.85-39.98-17.87
	c-12.85-7.12-37.19-23.8-57.62-62.54V25.69L137.59,0L274,25.69z"/>
<path fill="#FFFFFF" d="M211.65,83.19l-74.03,43.19c-2.18,1.27-4.94,1.25-7.09-0.06l-33.96-20.67c-4-2.43-4.11-7.94-0.23-10.52l0,0
	c2.19-1.45,5.08-1.53,7.34-0.19l26.77,15.78c2.19,1.29,4.97,1.27,7.14-0.06l65.99-40.5c3.56-2.18,8.33-0.71,9.85,3.05l0.94,2.32
	C215.54,78.37,214.39,81.6,211.65,83.19z"/>
</svg>
