<?xml version="1.0" encoding="utf-8"?>
<!-- Generator: Adobe Illustrator 24.1.3, SVG Export Plug-In . SVG Version: 6.00 Build 0)  -->
<svg version="1.1" baseProfile="tiny" id="Capa_1" xmlns="http://www.w3.org/2000/svg" xmlns:xlink="http://www.w3.org/1999/xlink"
	 x="0px" y="0px" viewBox="0 0 274 258" overflow="visible" xml:space="preserve">
<path fill="#FFD012" d="M3.43,113.12l50.02,50.78c2.62,2.66,3.85,6.48,3.29,10.25L46.5,244.4c-1.32,9.05,7.27,16.16,15.37,12.71
	l70.83-30.21c2.73-1.17,5.8-1.16,8.53,0.02l69.94,30.18c8.04,3.47,16.65-3.53,15.43-12.55l-9.49-70.46
	c-0.5-3.73,0.73-7.5,3.31-10.12l50.16-50.92c6.49-6.59,3.3-18.11-5.55-20.02l-74.24-16.07c-3.13-0.68-5.83-2.71-7.44-5.6L146.8,5.84
	c-4.37-7.84-15.21-7.78-19.5,0.11L91.03,72.69c-1.72,3.16-4.72,5.31-8.16,5.83c-13.49,2.04-50.25,9.62-73.83,14.57
	C0.16,94.95-3.08,106.51,3.43,113.12z"/>
</svg>
