<?xml version="1.0" encoding="utf-8"?>
<!-- Generator: Adobe Illustrator 24.1.3, SVG Export Plug-In . SVG Version: 6.00 Build 0)  -->
<svg version="1.1" id="Capa_1" xmlns="http://www.w3.org/2000/svg" xmlns:xlink="http://www.w3.org/1999/xlink" x="0px" y="0px"
	 viewBox="0 0 24 23.4" style="enable-background:new 0 0 24 23.4;" xml:space="preserve">
<style type="text/css">
	.st0{fill:none;}
	.st1{fill:#2E4ECC;}
	.st2{fill:#FFFFFF;}
</style>
<g id="bounding_box">
	<rect y="-0.6" class="st0" width="24" height="24"/>
</g>
<g id="design">
	<path class="st1" d="M12,21.4c-0.2,0-0.4-0.1-0.6-0.3l-5.6-6.6c-0.8-1-1.4-2.2-1.7-3.5C4.1,10.5,4,10,4,9.4c0-4.4,3.6-8,8-8
		s8,3.6,8,8c0,0.6-0.1,1.1-0.2,1.6c-0.2,1.2-0.8,2.4-1.6,3.4l-5.6,6.6C12.4,21.3,12.2,21.4,12,21.4z"/>
</g>
<circle class="st2" cx="12" cy="8.9" r="2.5"/>
</svg>
