<?xml version="1.0" encoding="utf-8"?>
<!-- Generator: Adobe Illustrator 24.1.3, SVG Export Plug-In . SVG Version: 6.00 Build 0)  -->
<svg version="1.1" id="Capa_1" xmlns="http://www.w3.org/2000/svg" xmlns:xlink="http://www.w3.org/1999/xlink" x="0px" y="0px"
	 viewBox="0 0 24 24" style="enable-background:new 0 0 24 24;" xml:space="preserve">
<style type="text/css">
	.st0{fill:none;}
	.st1{fill:#3151CF;}
	.st2{fill:#FFFFFF;}
</style>
<g id="bounding_box">
	<rect class="st0" width="24" height="24"/>
</g>
<path class="st1" d="M19.5,18.7H5.7c-1.5,0-2.7-1.2-2.7-2.7V9.4c0-1.5,1.2-2.7,2.7-2.7h13.8c1.5,0,2.7,1.2,2.7,2.7v6.5
	C22.3,17.5,21,18.7,19.5,18.7z"/>
<path class="st2" d="M5.9,8.8l4.3,2.3c1.3,0.7,3.5,0.7,4.8,0l4.4-2.3c0.3-0.1,0.7-0.2,1-0.1l0,0c0.7,0.2,0.8,0.7,0.3,1l-5.6,3
	c-1.3,0.7-3.4,0.7-4.8,0L4.5,9.7C4,9.4,4.1,8.9,4.7,8.7l0.2-0.1C5.3,8.6,5.7,8.6,5.9,8.8z"/>
</svg>
