<?xml version="1.0" encoding="utf-8"?>
<!-- Generator: Adobe Illustrator 24.1.3, SVG Export Plug-In . SVG Version: 6.00 Build 0)  -->
<svg version="1.1" id="Capa_1" xmlns="http://www.w3.org/2000/svg" xmlns:xlink="http://www.w3.org/1999/xlink" x="0px" y="0px"
	 viewBox="0 0 24 24" style="enable-background:new 0 0 24 24;" xml:space="preserve">
<style type="text/css">
	.st0{fill:none;}
	.st1{fill:#3353D1;}
</style>
<g id="bounding_box">
	<rect class="st0" width="24" height="24"/>
</g>
<circle class="st1" cx="7.4" cy="7.5" r="2.4"/>
<path class="st1" d="M19.3,8.5h-6.4c-0.6,0-1-0.5-1-1v0c0-0.6,0.5-1,1-1h6.4c0.6,0,1,0.5,1,1v0C20.3,8,19.8,8.5,19.3,8.5z"/>
<circle class="st1" cx="17.9" cy="14.8" r="2.4"/>
<path class="st1" d="M12.4,15.8H6c-0.6,0-1-0.5-1-1v0c0-0.6,0.5-1,1-1h6.4c0.6,0,1,0.5,1,1v0C13.5,15.4,13,15.8,12.4,15.8z"/>
</svg>
