<?xml version="1.0" encoding="utf-8"?>
<!-- Generator: Adobe Illustrator 24.1.3, SVG Export Plug-In . SVG Version: 6.00 Build 0)  -->
<svg version="1.1" id="Capa_1" xmlns="http://www.w3.org/2000/svg" xmlns:xlink="http://www.w3.org/1999/xlink" x="0px" y="0px"
	 viewBox="0 0 297 290" style="enable-background:new 0 0 297 290;" xml:space="preserve">
<style type="text/css">
	.st0{fill:#2F4FCD;}
</style>
<circle class="st0" cx="148.5" cy="112" r="42"/>
<ellipse class="st0" cx="148.5" cy="203.5" rx="86" ry="33.5"/>
<path class="st0" d="M106.5,147.9l-6.1-14.1c-6.1-14-6.6-29.9-1.5-44.3l5.4-15.2c-22.5-0.4-40.6,14-43.5,30
	c-3.6,20,15.9,45.3,45.7,45.3"/>
<path class="st0" d="M190.5,149.7l6.1-14.1c6.1-14,6.6-29.9,1.5-44.3l-5.4-15.2c22.5-0.4,40.6,14,43.5,30
	c3.6,20-15.9,45.3-45.7,45.3"/>
<path class="st0" d="M43.8,235.4l2.7-16.3c2.7-16.2,11.2-31.2,23.7-42l13.2-11.4c-19.1-12-42.7-8.1-54.3,5.4
	c-14.4,16.7-11.9,50.4,13.7,65.9"/>
<path class="st0" d="M253.2,235.4l-2.7-16.3c-2.7-16.2-11.2-31.2-23.7-42l-13.2-11.4c19.1-12,42.7-8.1,54.3,5.4
	c14.4,16.7,11.9,50.4-13.7,65.9"/>
</svg>
