<?xml version="1.0" encoding="utf-8"?>
<!-- Generator: Adobe Illustrator 24.1.3, SVG Export Plug-In . SVG Version: 6.00 Build 0)  -->
<svg version="1.1" id="Capa_1" xmlns="http://www.w3.org/2000/svg" xmlns:xlink="http://www.w3.org/1999/xlink" x="0px" y="0px"
	 viewBox="0 0 24 24" style="enable-background:new 0 0 24 24;" xml:space="preserve">
<style type="text/css">
	.st0{fill:none;}
	.st1{fill:#3555D3;stroke:#3555D3;stroke-width:0.75;stroke-miterlimit:10;}
	.st2{fill:#FFFFFF;}
</style>
<g id="bounding_box">
	<rect class="st0" width="24" height="24"/>
</g>
<g id="design">
	<path class="st1" d="M19.1,4.9C17.2,3,14.7,2,12,2S6.8,3,4.9,4.9C1,8.8,1,15.2,4.9,19.1c2,2,4.5,2.9,7.1,2.9s5.1-1,7.1-2.9
		C23,15.2,23,8.8,19.1,4.9z"/>
	<g>
		<g>
			<path class="st2" d="M17,16c-0.2,0.1-0.3,0.2-0.5,0.2S16.1,16.2,16,16l-4.3-4.3c-0.1-0.1-0.1-0.1-0.2-0.2s-0.1-0.2-0.1-0.3V7
				c0-0.4,0.3-0.8,0.8-0.8C12.7,6.3,13,6.6,13,7v3.9l4,4C17.3,15.3,17.3,15.7,17,16z"/>
		</g>
	</g>
</g>
</svg>
