<?xml version="1.0" encoding="utf-8"?>
<!-- Generator: Adobe Illustrator 24.1.3, SVG Export Plug-In . SVG Version: 6.00 Build 0)  -->
<svg version="1.1" id="Capa_1" xmlns="http://www.w3.org/2000/svg" xmlns:xlink="http://www.w3.org/1999/xlink" x="0px" y="0px"
	 viewBox="0 0 24 24" style="enable-background:new 0 0 24 24;" xml:space="preserve">
<style type="text/css">
	.st0{fill:none;}
	.st1{fill:#3151CF;}
</style>
<g id="bounding_box">
	<rect class="st0" width="24" height="24"/>
</g>
<g id="design">
	<path class="st1" d="M18.2,21c-0.1,0-0.3,0-0.4,0C10.2,19.9,4.1,13.8,3,6.2C2.9,5.4,3.2,4.6,3.7,3.9C4.2,3.3,5,3,5.8,3h3.3
		c0.9,0,1.6,0.6,1.7,1.4l0.4,2.2c0.2,1-0.3,2.1-1.1,2.7L9.7,9.6c1.2,1.8,2.8,3.4,4.7,4.6l0.2-0.3c0.6-0.9,1.7-1.3,2.7-1.1l2.2,0.4
		c0.8,0.1,1.5,0.9,1.5,1.7v3.3c0,0.8-0.4,1.6-1,2.1C19.5,20.8,18.9,21,18.2,21z"/>
</g>
<path class="st1" d="M17.3,11.4c1.4-2.1,1.2-4.7-0.3-6.1c-2.1-1.9-5.5-0.5-5.5-0.1c0,0.1,0.1,0.1,0.4,0.4c0.3,0.3,0.4,0.5,0.6,0.5
	c0,0,0.1,0,0.2-0.1c0.1,0,0.1-0.1,0.1-0.1c0.1-0.1,0.8-0.4,1.7-0.3c0.3,0,1,0.1,1.6,0.7C16.3,6.4,17,7,17,8c0.1,1.2-0.6,1.9-0.7,2.1
	"/>
<path class="st1" d="M20.4,10.8c1.3-2.2,0.3-5.5-1.9-7.5c-3.1-2.8-7-2-7-1.5c0,0.1,0.1,0.1,0.6,0.6c0.4,0.4,0.6,0.7,0.8,0.7
	c0.1,0,0.2,0,0.3,0c0.1,0,0.1-0.1,0.2-0.1c0.1-0.1,0.9-0.3,2,0c0.4,0.1,1.3,0.4,2.2,1.2c0.3,0.2,1.2,1.1,1.6,2.4
	c0.4,1.4-0.3,2.2-0.4,2.4"/>
</svg>
