<?xml version="1.0" encoding="utf-8"?>
<!-- Generator: Adobe Illustrator 24.1.3, SVG Export Plug-In . SVG Version: 6.00 Build 0)  -->
<svg version="1.1" id="Capa_1" xmlns="http://www.w3.org/2000/svg" xmlns:xlink="http://www.w3.org/1999/xlink" x="0px" y="0px"
	 viewBox="0 0 24 24" style="enable-background:new 0 0 24 24;" xml:space="preserve">
<style type="text/css">
	.st0{fill:none;}
	.st1{fill:#3151CF;}
</style>
<g id="bounding_area">
	<rect class="st0" width="24" height="24"/>
</g>
<g id="design">
	<g>
		<path class="st1" d="M18.8,15.9l-1.9-0.9c-0.3-0.1-0.5-0.5-0.5-0.9v-2.9c0-0.4,0.2-0.8,0.5-0.9l1.9-0.9c0.5-0.3,1.1,0.2,1.1,0.9
			V15C19.9,15.7,19.4,16.1,18.8,15.9z M16.1,16.8c0,0.7-0.6,1.3-1.2,1.3H5.9c-1,0-1.8-0.8-1.8-1.8V8.9c0-1,0.8-1.8,1.8-1.8h8.3
			c1,0,1.8,0.8,1.8,1.8V16.8z"/>
	</g>
</g>
</svg>
